<svg width="170" height="58" viewBox="0 0 170 58" fill="none" xmlns="http://www.w3.org/2000/svg">
    <g clip-path="url(#clip0_223_2500)" filter="url(#filter0_d_223_2500)" class="logo">
        <path d="M50.5555 38.6555C48.0502 38.6555 45.9625 37.89 44.188 36.359C42.4483 34.828 41.3001 32.7404 40.8129 30.096C39.8735 25.3291 40.3954 21.2233 42.3787 17.7786C44.362 14.334 47.1804 12.5942 50.8338 12.5942C52.33 12.5942 53.6174 12.8726 54.6612 13.3945C55.7399 13.9164 56.3314 14.5775 56.5053 15.4126C56.5401 15.6562 56.5749 16.3521 56.5749 17.5003V17.883H58.941L58.9758 12.2811C57.5144 11.9679 56.1226 11.7244 54.8004 11.5852C53.4782 11.446 52.156 11.3416 50.9382 11.3416C45.893 11.3416 41.996 13.1509 39.2124 16.7696C39.0732 16.9784 38.934 17.1523 38.7948 17.3611H34.4455L37.1595 11.3068C38.2729 8.76681 39.4211 6.71392 40.6738 5.18295C41.9264 3.65198 44.4316 1.77307 46.2757 1.18156C47.076 0.903203 48.6417 0.624845 48.6069 0.276898C48.5026 -0.279817 45.1275 0.102925 42.8658 1.49471C40.5694 2.8865 38.2381 4.8698 36.4636 7.20105C34.6543 9.4975 33.1581 13.0118 30.7225 17.3959H24.4594C23.6591 13.7772 21.0843 11.9331 16.7002 11.9331L14.8213 11.9679L10.3676 12.0723H4.13931V13.2553L4.52205 13.2901C5.87904 13.3945 6.67932 13.4641 6.92288 13.5685C7.16645 13.6381 7.34042 13.9164 7.41001 14.2992C7.54919 15.0646 7.61878 15.9693 7.61878 17.0132L7.51439 35.2456C7.4796 36.9505 7.34042 37.9944 7.06206 38.3075C6.7837 38.6207 5.87904 38.8642 4.31328 38.9686L3.96533 39.0034V40.1864H15.4128V39.0034L14.5777 38.9686C13.3251 38.899 12.5596 38.8294 12.2465 38.6903C11.9333 38.5859 11.7246 38.3423 11.655 37.9596C11.5158 37.1941 11.4462 36.2894 11.4462 35.2456L11.481 28.4954H13.6383C17.4309 28.4954 20.3536 27.4864 22.3717 25.4335C24.0419 23.7633 24.8074 21.7104 24.703 19.24H29.6786L21.2583 38.4119C19.7621 41.7174 17.7788 43.7703 16.8394 44.6402C15.8999 45.4752 14.2994 46.7278 12.9076 46.867C12.0029 46.9366 11.0982 46.9714 10.124 46.9366C9.56728 46.9018 9.14974 46.9366 8.83659 46.9366C8.24508 47.0062 7.75796 47.1802 7.41001 47.4585C7.02727 47.7717 6.7837 47.9804 6.71411 48.4328C6.60973 48.9547 6.74891 49.3722 7.09686 49.6854C7.4796 49.9985 8.1059 50.1029 8.97577 50.0333C11.6202 49.7898 14.369 48.1892 17.6397 45.4404C20.9104 42.6917 24.9117 38.4815 27.3126 33.1579L33.506 19.2748H37.6814C36.1504 22.4063 35.8025 26.025 36.6028 30.1656C37.2639 33.5058 38.6557 36.1155 40.8129 38.0292C42.9702 39.9429 45.6146 40.8823 48.7113 40.8823C52.0168 40.8823 55.4615 40.082 59.0454 38.4815L59.0802 36.8461C55.6007 38.0292 52.7475 38.6555 50.5555 38.6555ZM19.101 24.4592C17.744 26.2338 15.7607 27.1036 13.1163 27.1036H11.5158L11.5854 13.2901H14.1254C17.7092 13.2901 19.7621 14.7515 20.3188 17.6743C20.8756 20.4578 20.458 22.6847 19.101 24.4592Z"
              fill="#DF8627"/>
    </g>
    <g filter="url(#filter0_d_223_2500)" class="text">
        <path d="M79.5396 35.178C79.5396 32.2553 81.8012 30.1328 84.6196 30.1328C87.4379 30.1328 89.6996 32.2553 89.6996 35.178C89.6996 38.1008 87.4379 40.2233 84.6196 40.2233C81.8012 40.2233 79.5396 38.1008 79.5396 35.178ZM88.1338 35.178C88.1338 33.0904 86.6725 31.4898 84.6196 31.4898C82.5667 31.4898 81.1053 33.0556 81.1053 35.178C81.1053 37.2657 82.5667 38.8663 84.6196 38.8663C86.6725 38.8663 88.1338 37.2657 88.1338 35.178Z"
              fill="#466398"/>
        <path d="M139.143 35.2102C138.621 34.7231 137.89 33.7837 137.89 33.7837C137.89 33.7837 138.029 34.9319 138.029 35.6974V40.1163H136.011V29.5039H136.22L141.509 34.4795C142.031 34.9667 142.761 35.9061 142.761 35.9061C142.761 35.9061 142.622 34.7231 142.622 33.9924V29.5735H144.64V40.1859H144.432L139.143 35.2102Z"
              fill="#466398"/>
        <path d="M158.559 12.0391H161.029C163.743 12.0391 165.239 13.5004 165.239 15.7969C165.239 18.0585 163.708 19.5547 161.029 19.5547H160.09V21.886H158.559V12.0391ZM160.959 18.1977C162.908 18.1977 163.673 17.2931 163.673 15.7969C163.673 14.3007 162.873 13.3961 160.959 13.3961H160.09V18.1977H160.959Z"
              fill="#466398"/>
        <path d="M134.968 19.9708L136.22 19.2749C136.673 20.0404 137.264 20.6319 138.482 20.6319C139.491 20.6319 140.187 20.11 140.187 19.2749C140.187 18.4398 139.595 18.0571 138.552 17.57L137.891 17.2916C136.464 16.6653 135.594 15.9346 135.594 14.4037C135.594 12.9423 136.708 11.8984 138.343 11.8984C139.63 11.8984 140.535 12.3856 141.126 13.4642L139.909 14.1949C139.526 13.5338 139.108 13.2554 138.343 13.2554C137.577 13.2554 137.055 13.7426 137.055 14.4037C137.055 15.1343 137.473 15.4823 138.482 15.8998L139.108 16.1782C140.778 16.9089 141.683 17.7092 141.683 19.2749C141.683 21.0147 140.326 21.9889 138.482 21.9889C136.673 21.9889 135.524 21.0842 134.968 19.9708Z"
              fill="#466398"/>
        <path d="M133.645 21.886H131.871L130.096 19.3112C129.818 19.346 129.54 19.3807 129.261 19.3807H128.322V21.9208H126.826V12.0391H129.296C132.01 12.0391 133.541 13.4656 133.541 15.7273C133.541 17.2583 132.845 18.3021 131.558 18.8588L133.645 21.886ZM129.227 18.0238C131.175 18.0238 131.975 17.1539 131.975 15.7273C131.975 14.2659 131.175 13.3961 129.227 13.3961H128.357V18.0238H129.227Z"
              fill="#466398"/>
        <path d="M96.5889 21.886H94.8144L93.0399 19.3112C92.7615 19.346 92.4832 19.3807 92.2048 19.3807H91.2653V21.9208H89.7344V12.0391H92.2048C94.9188 12.0391 96.4498 13.4656 96.4498 15.7273C96.4498 17.2583 95.7539 18.3021 94.4665 18.8588L96.5889 21.886ZM92.17 18.0238C94.1185 18.0238 94.9188 17.1539 94.9188 15.7273C94.9188 14.2659 94.1185 13.3961 92.17 13.3961H91.3001V18.0238H92.17Z"
              fill="#466398"/>
        <path d="M109.463 16.109C109.08 15.6914 108.523 14.9955 108.523 14.9955C108.523 14.9955 108.628 15.7958 108.628 16.4221V21.8501H107.201V11.9336H107.41L112.838 17.7443C113.221 18.1618 113.743 18.8577 113.743 18.8577C113.743 18.8577 113.638 17.9879 113.638 17.4312V12.038H115.065V21.9893H114.891L109.463 16.109Z"
              fill="#466398"/>
        <path d="M72.1631 12.0391H74.6335C77.3475 12.0391 78.8437 13.5004 78.8437 15.7969C78.8437 18.0585 77.3127 19.5547 74.6335 19.5547H73.6941V21.886H72.1631V12.0391ZM74.5639 18.1977C76.5124 18.1977 77.2779 17.2931 77.2779 15.7969C77.2779 14.3007 76.4776 13.3961 74.5639 13.3961H73.6941V18.1977H74.5639Z"
              fill="#466398"/>
        <path d="M83.4367 11.9336H83.6107L87.9252 21.8849H86.3247L85.768 20.4931H81.2447L80.6879 21.8849H79.2266L83.4367 11.9336ZM85.2113 19.2057L83.9934 16.1438C83.7499 15.5522 83.5063 14.6824 83.5063 14.6824C83.5063 14.6824 83.2628 15.5522 83.0192 16.1438L81.8014 19.2057H85.2113Z"
              fill="#466398"/>
        <path d="M100.869 13.3609H97.9458V12.0039H105.322V13.3609H102.4V21.8508H100.869V13.3609Z" fill="#466398"/>
        <path d="M118.057 12.0391H124.32V13.3961H119.588V17.2235H123.763V18.5457H119.588V20.529H124.32V21.886H118.057V12.0391Z"
              fill="#466398"/>
        <path d="M143.84 12.0391H145.371V17.3279H150.103V12.0391H151.634V21.886H150.103V18.7196H145.371V21.886H143.84V12.0391Z"
              fill="#466398"/>
        <path d="M154.348 12.0391H155.879V21.886H154.348V12.0391Z" fill="#466398"/>
        <path d="M72.1631 30.2695H78.287V31.6265H73.6941V35.5583H77.8694V36.9153H73.6941V40.1164H72.1631V30.2695Z"
              fill="#466398"/>
        <path d="M98.5377 40.0816H96.7631L94.9886 37.5068C94.7102 37.5416 94.4319 37.5764 94.1535 37.5764H93.2141V40.1164H91.6831V30.2695H94.1535C96.8675 30.2695 98.3985 31.6961 98.3985 33.9578C98.3985 35.4887 97.7026 36.5326 96.4152 37.0893L98.5377 40.0816ZM94.1187 36.2542C96.0672 36.2542 96.8675 35.4191 96.8675 33.923C96.8675 32.4616 96.0672 31.5917 94.1187 31.5917H93.2489V36.2194H94.1187V36.2542Z"
              fill="#466398"/>
        <path d="M103.339 34.8268C103.339 31.73 105.74 29.4336 108.767 29.4336C110.681 29.4336 112.038 30.1295 112.977 31.5909L111.307 32.7739C110.82 31.9736 109.95 31.3821 108.767 31.3821C106.854 31.3821 105.566 32.8435 105.566 34.8268C105.566 36.7753 106.854 38.3062 108.767 38.3062C110.124 38.3062 110.89 37.6451 111.481 36.7753L113.151 37.9235C112.247 39.3501 110.785 40.2547 108.767 40.2547C105.74 40.22 103.339 37.9583 103.339 34.8268Z"
              fill="#466398"/>
        <path d="M114.752 29.5742H116.909V34.9674H121.398V29.5742H123.555V40.0822H121.398V36.8811H116.909V40.0822H114.752V29.5742Z"
              fill="#466398"/>
        <path d="M129.609 29.5039H129.783L134.585 40.1163H132.323L131.836 38.9333H127.556L127.069 40.1163H124.981L129.609 29.5039ZM131.071 37.0892L130.305 35.2798C129.992 34.5491 129.679 33.4009 129.679 33.4009C129.679 33.4009 129.366 34.5491 129.052 35.2798L128.287 37.0892H131.071Z"
              fill="#466398"/>
        <path d="M158.28 29.5742H165.239V31.4879H160.437V34.8282H164.647V36.6723H160.437V38.2033H165.239V40.117H158.28V29.5742Z"
              fill="#466398"/>
        <path d="M153.687 34.4824L151.773 36.3961H154.278V37.927C153.722 38.2054 152.886 38.3098 152.225 38.3098C149.999 38.3098 148.746 36.8136 148.746 34.8303C148.746 32.8818 149.999 31.3856 151.877 31.3856C153.095 31.3856 153.687 31.8032 154.243 32.3251L155.705 30.8637C154.835 29.8895 153.617 29.4023 151.877 29.4023C148.711 29.4023 146.519 31.664 146.519 34.7955C146.519 37.8923 148.781 40.1887 152.225 40.1887C154.139 40.1887 155.67 39.458 156.262 38.9709V34.4824H153.687Z"
              fill="#466398"/>
    </g>
    <defs>
        <filter id="filter0_d_223_2500" x="0" y="0" width="169.239" height="58" filterUnits="userSpaceOnUse"
                color-interpolation-filters="sRGB">
            <feFlood flood-opacity="0" result="BackgroundImageFix"/>
            <feColorMatrix in="SourceAlpha" type="matrix" values="0 0 0 0 0 0 0 0 0 0 0 0 0 0 0 0 0 0 127 0"
                           result="hardAlpha"/>
            <feOffset dy="4"/>
            <feGaussianBlur stdDeviation="2"/>
            <feComposite in2="hardAlpha" operator="out"/>
            <feColorMatrix type="matrix" values="0 0 0 0 0 0 0 0 0 0 0 0 0 0 0 0 0 0 0.25 0"/>
            <feBlend mode="normal" in2="BackgroundImageFix" result="effect1_dropShadow_223_2500"/>
            <feBlend mode="normal" in="SourceGraphic" in2="effect1_dropShadow_223_2500" result="shape"/>
        </filter>
        <clipPath id="clip0_223_2500">
            <rect width="161.239" height="50" fill="white" transform="translate(4)"/>
        </clipPath>
    </defs>
</svg>
